<svg xmlns="http://www.w3.org/2000/svg" width="60" height="40" viewBox="0 0 19 10">
  <rect width="19" height="10" fill="#b22234"/>
  <g fill="#fff">
    <rect y="1" width="19" height="1"/>
    <rect y="3" width="19" height="1"/>
    <rect y="5" width="19" height="1"/>
    <rect y="7" width="19" height="1"/>
    <rect y="9" width="19" height="1"/>
  </g>
  <rect width="8" height="6" fill="#3c3b6e"/>
  <g fill="#fff">
    <circle cx="1" cy="1" r="0.25"/>
    <circle cx="3" cy="1" r="0.25"/>
    <circle cx="5" cy="1" r="0.25"/>
    <circle cx="7" cy="1" r="0.25"/>
    <circle cx="2" cy="2" r="0.25"/>
    <circle cx="4" cy="2" r="0.25"/>
    <circle cx="6" cy="2" r="0.25"/>
    <circle cx="1" cy="3" r="0.25"/>
    <circle cx="3" cy="3" r="0.25"/>
    <circle cx="5" cy="3" r="0.25"/>
    <circle cx="7" cy="3" r="0.25"/>
    <circle cx="2" cy="4" r="0.25"/>
    <circle cx="4" cy="4" r="0.25"/>
    <circle cx="6" cy="4" r="0.25"/>
    <circle cx="1" cy="5" r="0.25"/>
    <circle cx="3" cy="5" r="0.25"/>
    <circle cx="5" cy="5" r="0.25"/>
    <circle cx="7" cy="5" r="0.25"/>
  </g>
</svg>
