<svg xmlns="http://www.w3.org/2000/svg" fill="#dfe7ff" viewBox="0 0 24 24">
  <path d="M12 .5C5.73.5.5 5.73.5 12.02c0 5.11 3.32 9.44 7.94 10.97.58.11.79-.25.79-.56 0-.28-.01-1.03-.02-2.02-3.23.7-3.91-1.56-3.91-1.56-.53-1.34-1.28-1.7-1.28-1.7-1.05-.72.08-.71.08-.71 1.16.08 1.77 1.19 1.77 1.19 1.03 1.77 2.7 1.26 3.36.96.1-.75.4-1.26.72-1.55-2.58-.29-5.3-1.29-5.3-5.73 0-1.27.45-2.3 1.18-3.12-.12-.29-.51-1.46.11-3.05 0 0 .97-.31 3.18 1.19.92-.26 1.9-.39 2.88-.4.98.01 1.96.14 2.88.4 2.21-1.5 3.18-1.19 3.18-1.19.62 1.59.23 2.76.11 3.05.73.82 1.18 1.85 1.18 3.12 0 4.45-2.72 5.44-5.31 5.73.41.36.78 1.08.78 2.17 0 1.57-.01 2.84-.01 3.22 0 .31.21.67.8.56A10.53 10.53 0 0 0 23.5 12C23.5 5.73 18.27.5 12 .5z"></path>
</svg>
